<svg width="938" height="430" viewBox="0 0 938 430" fill="none" xmlns="http://www.w3.org/2000/svg">
<g clip-path="url(#clip0_1_2)">
<rect width="938" height="430" rx="40" fill="url(#paint0_linear_1_2)"/>
<path d="M0 390C0 412.091 17.9086 430 40 430H898C920.091 430 938 412.091 938 390V40C938 17.9086 920.091 0 898 0H40C17.9086 0 0 17.9086 0 40V390ZM233.533 52.8667C239.133 55.4 245.533 58.7333 247.667 60.3333C253.133 64.2 269.533 69.8 278.067 70.6C281.8 71 285 71.6667 285 71.9333C285 72.2 284.067 73.8 283 75.4C281.8 77.2667 278.733 94.8667 275 121.133C271.667 144.467 268.733 165.533 268.333 167.667C267.667 171.4 268.067 171.933 272.2 173.4C274.733 174.333 281.533 179.4 287.133 184.467C292.867 189.667 301 195.667 305.133 197.8C319.133 204.867 337.4 205.533 349.267 199.533C356.2 196.067 362.2 189.667 363.133 184.733C364.2 179.4 365.533 179.267 372.6 183.8C387 193.267 391 212.6 382.2 229.933C371 251.8 339.267 257.4 311 242.6C298.6 236.067 285.533 222.067 276.467 205.667C268.2 190.867 263.133 184.6 255.8 180.067C250.867 177 237.267 173.4 235.267 174.6C234.6 175 235.267 173.533 237 171.4C239.4 167.933 240.733 161 245.8 125.533C249 102.467 251.533 81.5333 251.4 79C250.867 73.5333 248.733 72.6 235.267 72.4666C224.333 72.3333 217.8 74.8667 214.2 80.8667C210.067 87.6667 211.667 97.9333 217.267 99.6667C220.733 100.867 220.333 102.333 215.4 105.933C212.2 108.2 208.733 109.133 202.067 109.4C194.333 109.933 192.333 109.533 187.4 106.6C171.667 97.2667 166.467 82.7334 173.533 67.5334C177.133 59.6667 184.333 53.4 193.667 49.6667C204.2 45.4 220.333 46.7333 233.533 52.8667ZM477.133 76.0667C475.4 78.6 473.933 84.8667 472.333 96.3333C471.133 105.533 469.933 114.067 469.667 115.267C469.267 117.4 470.467 117.667 479.533 117.667C485.502 117.667 490.565 113.281 491.416 107.373L492.333 101C495 82.2 495.267 77.9333 493.8 74.6C492.733 72.4667 494.067 72.3333 511 72.3333C529.267 72.3333 529.4 72.3333 527 75C525.133 77.1333 523.267 87.4 518.2 122.6C512.6 162.467 512.067 168.067 513.667 171.267C514.475 173.008 513.204 175 511.284 175H483.212C480.953 175 479.563 172.531 480.733 170.6C482.467 167.8 484.067 160.6 485.533 149C486.867 139.533 488.2 130.067 488.6 128.067C489.012 126.145 487.547 124.333 485.582 124.333H479.133C467.4 124.333 469 121.533 465.133 148.867C463.4 161.4 462.867 168.333 463.8 170.6C464.467 172.333 465 174.067 465 174.467C465 174.733 457 175 447.133 175H434.931C432.329 175 430.636 172.261 431.8 169.933C433.533 166.467 435.933 153 439.667 125.667C445.8 81.4 445.933 79.5333 444.467 75.4C443.533 72.4667 443.667 72.4667 460.6 72.0667C469.933 71.8 478.067 71.8 478.6 72.0667C479.133 72.3333 478.467 74.0667 477.133 76.0667ZM651.533 83.9333C648.733 94.3333 638.333 158.467 638.333 165.267C638.333 167.8 639 171 639.667 172.467C641 174.867 640.467 175 622.333 175C612.067 175 603.667 174.733 603.667 174.333C603.667 173.933 604.867 171.933 606.2 169.933C608.2 167.267 610.2 157.667 614.2 130.733C620.2 91.8 620.333 89.5334 618.067 87.2667C617.267 86.4667 616.733 85.5333 617.133 85.1333C617.667 84.6 650.067 75.4 652.467 75.1333C653.4 75 653.133 78.0667 651.533 83.9333ZM699.667 75.9333C699.667 76.6 698.733 79.9333 697.667 83.6667C695.8 89.5333 693.533 102.733 685.533 152.867C683.8 163.933 683.533 168.333 684.6 171.133C685.308 173.001 683.929 175 681.931 175H653.533C651.61 175 650.513 172.805 651.667 171.267C653.667 168.6 655.4 160.733 658.867 138.333C661.4 122.2 664.067 105.533 664.733 101.133C665.933 93.4 665.667 89 663.533 86.3333C662.867 85.4 668.6 83.2667 680.067 80.0667C699.933 74.6 699.667 74.6 699.667 75.9333ZM347.533 107.267C357.4 112.2 358.067 114.467 355 134.6C353.533 143.933 352.333 157 352.333 163.533V166.032C352.333 171.071 348.02 175.03 343 174.6C337.933 174.2 332.067 173.133 330.067 172.333C327.133 171 325.667 171 322.467 172.333C316.467 174.733 300.067 174.467 293.667 171.8C285.533 168.333 282.467 163.8 282.333 155C282.333 138.6 296.2 127.533 320.2 125L323.829 124.615C326.769 124.303 329 121.823 329 118.867C329 113.133 325.533 109.667 319.667 109.667C315.4 109.667 310.333 113.133 310.333 115.933C310.333 122.467 299.133 125.933 297.533 119.8C295.933 113.267 303.4 106.2 314.067 104.333C324.467 102.333 340.6 103.8 347.533 107.267ZM588.2 106.867C598.467 111.933 599 114.467 594.867 139.933C591.667 159.667 591.4 167 593.667 172.6C594.467 174.733 593.667 175 586.467 175C582.067 175 576.067 174.067 573.133 172.867C568.6 171.133 567 171 562.733 172.467C555.8 174.733 539.533 174.333 533.933 171.667C519.933 165.133 518.2 150.067 529.933 137.533C536.733 130.333 546.333 126.333 560.733 124.867L563.965 124.502C566.833 124.178 569 121.752 569 118.867C569 107.667 553.8 106.333 550.333 117.133C549.267 120.333 547.667 121.933 545.4 122.467C538.067 124.333 534.867 118.067 539.8 111.8C544.733 105.4 553.8 103 570.333 103.533C579.133 103.667 583.133 104.467 588.2 106.867ZM746.2 104.467C759 107.133 769 118.067 769 129.133C769 138.467 767.4 139 742.867 139H727.205C723.711 139 720.737 141.547 720.2 145C719.267 152.067 720.2 158.2 723 162.6C726.067 167.267 735.933 167 740.6 161.933C743.533 158.867 743.8 157.533 743.267 152.067C742.333 145.133 743.533 143.533 750.067 142.2C759.533 140.333 766.467 147.533 763 155.8C760.6 161.533 751.133 169.133 743.133 171.933C734.6 174.733 719.4 174.733 712.867 171.8C690.2 162.067 687.133 135.267 706.6 116.867C712.867 110.733 720.867 106.333 728.6 104.467C735.667 102.733 738.6 102.733 746.2 104.467ZM765.533 236.467C769.533 239.667 770.067 244.867 766.733 248.6C764.733 250.867 757.267 251 586.067 251C409.4 251 407.667 251 405 248.333C401.667 245 401.667 241.533 404.733 237.8C406.168 236.028 408.323 234.995 410.602 234.988L523 234.6C586.867 234.467 666.733 234.2 700.6 234.067C760.6 233.8 762.2 233.8 765.533 236.467ZM273.533 237.933C276.333 241.933 276.2 245.133 273 248.333C270.467 250.867 268.6 251 223 251C177.4 251 175.533 250.867 173 248.333C169.4 244.733 169.533 239.667 173.267 237.133C175.8 235.267 183 235 223.933 235H267.983C270.204 235 272.282 236.098 273.533 237.933ZM897 275.8C924.333 290.733 923.133 336.867 894.6 363C878.733 377.667 860.467 384.333 836.867 384.333C813.667 384.333 798.6 377.267 791.267 363C787.933 356.6 787.533 354.6 788.067 346.733C789 331.533 797.933 317.933 811.267 311.267C836.067 298.867 863.667 309.933 863.667 332.333C863.667 340.867 861.267 341.667 836.733 341.667H819.224C817.142 341.667 815.335 343.104 814.867 345.133C813.533 350.467 815.267 361.4 818.2 366.2C821.667 371.8 825.933 373.667 835.667 373.667C847.133 373.667 858.333 367.533 866.333 356.867C875 345.533 877.667 336.467 877.667 318.333C877.667 304.733 877.4 303.133 873.8 296.333C871.8 292.333 867.4 286.467 864.067 283.4L861.196 280.66C859.665 279.198 859.895 276.692 861.667 275.533C870.467 269.8 886.2 269.933 897 275.8ZM71.8 279.267C70.4667 281.8 68.6 289.267 67.6666 296.333C66.8666 303.267 64.3333 321.267 62.2 336.067C60.0666 351 58.3333 363.8 58.3333 364.467C58.3333 365.133 65 365.667 73 365.667H85.6596C87.0347 365.667 88.3583 365.143 89.3615 364.203L94.4097 359.47C96.4645 357.544 99.7983 359.278 99.4 362.067C98.7333 366.6 97.9333 371.667 97.5333 373.267C97.225 375.039 95.6865 376.333 93.8873 376.333H60.8667C28.4667 376.333 25 376.067 26.8667 374.333C29.2667 371.8 29 373.4 35.8 325C38.7333 303.667 41 283.8 40.7333 280.6C40.5172 277.574 42.9138 275 45.9476 275H69.3046C71.4944 275 72.8735 277.358 71.8 279.267ZM709.133 281.533C711.533 284.067 713 286.867 713 289.267C713 293.8 708.867 300.733 704.733 303.533C695.8 309.267 683.667 304.333 683.667 295C683.667 281.133 700.067 272.467 709.133 281.533ZM507.133 299.667L507.02 300.397C506.589 303.166 508.731 305.667 511.533 305.667C516.067 305.667 517 306.067 517 308.333C517 310.6 516.067 311 511 311C507.133 311 505 311.533 505 312.6C505 313.533 503.133 325.667 501 339.533C496.333 368.867 496.2 370.867 499.267 373C501.267 374.467 501.267 374.733 498.467 376.2C493.133 379.133 481.933 379.533 477.267 377.133C467.8 372.2 467.267 367.933 472.733 333.933C476.333 312.6 476.333 311 474.2 311C472.867 311 471.533 310.467 471.133 309.933C469.8 307.667 472.6 306.067 479.4 305.133C487.933 304.067 499 300.067 503.667 296.333C505.533 294.867 507.267 293.667 507.533 293.667C507.8 293.667 507.533 296.333 507.133 299.667ZM172.2 309.533C178.333 312.6 181.4 316.867 181.4 322.6C181.4 324.733 180.067 335.267 178.333 346.2C175.933 361.8 175.533 367.133 176.6 371.133C177.8 375.933 177.8 376.333 175.133 376.467C165.667 376.867 157.267 375.933 154.6 374.2C152.067 372.6 151.133 372.467 149.533 373.8C148.467 374.733 142.733 375.667 136.867 376.067C121.133 377 111.133 372.6 107.4 363C104.733 356.067 110.467 341.933 118.333 336.333C123.667 332.467 134.867 328.867 144.6 327.667C152.2 326.867 152.867 326.467 153.667 323C155.267 315.533 150.2 311.267 141.533 313C137.933 313.667 136.467 314.867 134.6 318.6C131.667 324.733 128.467 326.867 125.4 324.867C117.8 320.2 124.733 310.333 137.8 307C146.2 305 165.533 306.333 172.2 309.533ZM225.133 307.933C229.4 309.667 231.267 309.8 233.133 308.6C239.933 304.333 256.733 305.533 262.6 310.6C264.6 312.467 265.533 312.333 270.6 309.933C278.2 306.333 285 305.133 292.333 306.333C299.533 307.4 307 313.267 308.067 318.733C308.467 320.733 307.267 331.667 305.4 343C303.533 355 302.333 366.467 302.733 370.333C303.089 373.888 300.273 376.962 296.701 376.918L292.467 376.867C276.6 376.6 277 376.733 275 371.667C273.133 367.533 273.4 365 276.867 343.4C279.4 327.533 280.333 318.867 279.533 317.267C277.667 313.933 272.467 314.333 270.6 317.933C268.2 322.733 261.933 365.667 262.867 371.933C263.285 374.929 260.904 377.579 257.881 377.484L251 377.267C232.333 376.867 232.067 375.933 237.667 340.067C239.533 328.467 240.6 318.2 240.2 317C239 313.933 233.4 314.6 231.133 317.933C228.6 321.933 221.933 364.867 222.733 371.267C223.267 374.733 222.867 376.333 221.4 376.867C218.867 377.933 189 377.933 189 377C189 376.6 189.933 374.867 191 373.267C192.867 370.333 201 323 201 314.867C201 312.2 200.333 311 198.867 311C196.2 311 197.8 308.467 201.533 307C206.333 305 219.267 305.533 225.133 307.933ZM377.8 309.4C388.067 314.6 388.333 316.6 384.2 343.533C381 363.667 380.733 369.667 383 375.267C383.8 377.4 383 377.667 376.467 377.667C372.467 377.667 366.333 376.733 363 375.533C357.933 373.933 355.933 373.8 352.067 375.133C345.667 377.267 326.867 376.067 321.4 373.267C316.6 370.733 311.667 363.4 311.667 358.867C311.667 342.733 325 331.267 347.533 328.067L353.423 327.172C356.164 326.756 358.285 324.554 358.6 321.8C359 318.6 358.467 316.467 356.733 314.733C352.2 310.2 341.667 312.733 340.067 318.867C338.467 325.533 331.933 327.8 328.467 322.867C324.733 317.4 331.267 309.8 341.933 307C350.733 304.867 371.533 306.2 377.8 309.4ZM443.933 307.133C452.733 308.333 456.6 308.333 459.133 307.267C461.933 305.933 462.333 306.067 462.333 308.067C462.333 313 457.933 323.133 454.733 325.667C450.333 329.133 449.267 329 448.2 325.133C447 319.933 440.467 314.867 433.533 313.533C421.933 311.4 412.2 316.467 415.533 322.867C417.267 325.933 418.467 326.467 433.267 329.667C446.067 332.467 456.333 337.267 459.933 342.333C466.067 350.467 461.133 366.333 450.867 371.933C442.333 376.6 427.133 378.333 411.8 376.333C396.6 374.467 397 374.467 394.067 375.667C392.067 376.467 391.667 375.933 391.667 372.867C391.667 364.067 397 353.667 401.4 353.667C402.333 353.667 403.933 355.667 404.733 358.2C406.867 364.067 413.8 366.867 426.6 367.267C435 367.533 436.2 367.267 438.467 364.467C439.8 362.733 441 361 441 360.467C441 357.133 436.333 354.867 425.4 352.467C404.333 347.933 397 342.333 397 331C397 326.2 397.933 323.533 401 319.267C405.933 312.333 409.133 310.333 418.333 307.8C427.533 305.4 429.4 305.267 443.933 307.133ZM553 307.133C554.067 307.133 559.4 306.733 564.733 306.2C577.267 305 585.133 307.667 588.2 314.2C592.067 322.333 586.333 331 577.133 331C572.867 331 569.133 328.067 568.867 324.6C568.6 320.467 569.267 317 570.733 315.267C571.933 313.8 571.4 313.533 568.333 313.933C565.933 314.2 563.133 316.067 560.6 319.267C557.133 323.667 556.333 326.6 552.867 347.133C549.533 367.933 549.267 370.333 551.133 373.8C552.045 375.564 550.765 377.667 548.78 377.667H518.274C516.613 377.667 515.744 375.692 516.867 374.467C519.4 371.8 520.6 367 523.8 348.067C528.2 321.533 528.6 313.933 525.667 312.867C523.933 312.2 523.933 311.667 525.267 310.067C528.2 306.467 532.067 305.667 541.667 306.467C546.867 306.867 551.933 307.133 553 307.133ZM643.8 307.8C649 309.4 652.733 311.667 657.133 316.2C670.333 329.4 669 348.867 653.933 363.4C644.6 372.333 636.867 375.533 623.933 376.067C609.933 376.733 603.267 374.333 595.8 366.333C578.2 347.267 591.667 315.667 621 307.533C629.4 305.267 635.267 305.267 643.8 307.8ZM710.867 313C709.8 316.733 707.133 331 705 344.867C701.4 367.4 701.133 370.467 702.867 373.8C703.73 375.589 702.427 377.667 700.44 377.667H670.788C668.867 377.667 667.75 375.496 668.867 373.933C670.867 371.4 672.6 364.2 675 349.667C678.733 326.867 679.133 320.333 676.733 317.933C675.533 316.733 675.667 316.2 677.133 315.8C680.6 314.467 712.333 305.933 712.6 306.2C712.733 306.333 712.067 309.4 710.867 313ZM781.4 311C780.067 318.2 777.267 323.933 774.067 326.2C769.933 329.133 769.267 329 767.133 323.667C764.2 316.867 758.067 313.667 748.067 313.667C741.4 313.667 739.133 314.2 737 316.333C731.133 322.2 735 325.667 751 329C776.867 334.2 787 345.133 780.467 360.733C778.2 366.2 770.6 372.867 764.067 375.133C757.533 377.4 710.2 377.267 710.333 375C710.467 372.867 713.267 361.8 714.467 358.733C715.267 356.733 717.533 354.6 719.8 353.8C723.4 352.6 723.667 352.733 723.667 355.667C723.667 362.467 732.6 367 745.8 367C755.267 367 759.667 364.867 759.667 360.333C759.667 356.733 757 355.267 746.867 353.133C733.933 350.333 729.267 348.733 725.133 346.2C717.267 340.867 714.6 334.6 716.867 325.933C718.733 319 722.733 314.2 729.133 311C737.267 306.733 743 305.933 763.267 306.2L777.574 306.3C780.043 306.317 781.884 308.579 781.4 311Z" fill="url(#paint1_linear_1_2)"/>
<path d="M320.2 131.533C305.667 137.933 305.667 168.6 320.2 164.867C323.267 164.2 323.667 163.4 323.667 157.8C323.667 154.467 324.467 146.733 325.533 140.6C327.4 128.733 327.267 128.467 320.2 131.533Z" fill="url(#paint2_linear_1_2)"/>
<path d="M560.333 132.2C546.067 140.867 546.467 168.467 560.867 164.733C563 164.2 563.667 163 563.667 159.133C563.667 154.733 565.4 141.8 567.133 133.267C568.067 128.867 566.067 128.6 560.333 132.2Z" fill="url(#paint3_linear_1_2)"/>
<path d="M730.333 116.333C728.2 118.6 725.667 123 724.6 126.333C723.56 129.259 725.729 132.333 728.835 132.333H729.533C743.133 132.333 747.933 128.467 745.667 119.4C744.333 114.067 742.467 112.333 738.067 112.333C735.4 112.333 732.867 113.667 730.333 116.333Z" fill="url(#paint4_linear_1_2)"/>
<path d="M825.4 317.933C822.467 321.267 819.267 327 817.667 332.2C817.214 333.752 818.446 335.279 820.058 335.166L826.2 334.733C840.2 333.667 843.4 329.933 839.133 319.667C837.4 315.667 836.467 315 832.6 315C829.667 315 827.133 316.067 825.4 317.933Z" fill="url(#paint5_linear_1_2)"/>
<path d="M146.333 333.267C142.067 334.867 136.867 341.133 135.133 347C131.667 358.6 135.8 368.733 143.667 367.933C146.733 367.667 147 366.867 149.267 352.333C152.467 330.867 152.467 331 146.333 333.267Z" fill="url(#paint6_linear_1_2)"/>
<path d="M348.867 335.4C341.267 340.467 337.133 353.133 340.2 362.467C341.267 365.933 346.333 368.467 350.2 367.4C352.333 366.867 353 365.667 353 362.333C353 359.933 353.933 353.133 355 347.4C358.2 330.733 357.533 329.533 348.867 335.4Z" fill="url(#paint7_linear_1_2)"/>
<path d="M625 317.933C620.867 322.2 618.867 326.6 616.467 335.933C612.333 351.933 615 367.133 622.067 368.067C634.067 369.8 645 331.4 636.333 318.2C633.667 314.067 628.6 314.067 625 317.933Z" fill="url(#paint8_linear_1_2)"/>
</g>
<defs>
<linearGradient id="paint0_linear_1_2" x1="934.666" y1="2.23395e-05" x2="81.4322" y2="550.948" gradientUnits="userSpaceOnUse">
<stop stop-color="#82C84B"/>
<stop offset="1" stop-color="#55AC39"/>
</linearGradient>
<linearGradient id="paint1_linear_1_2" x1="938" y1="216.834" x2="0.0794183" y2="206.18" gradientUnits="userSpaceOnUse">
<stop stop-color="#3C5132"/>
<stop offset="1" stop-color="#253D1B"/>
</linearGradient>
<linearGradient id="paint2_linear_1_2" x1="639.448" y1="341.821" x2="614.508" y2="341.76" gradientUnits="userSpaceOnUse">
<stop stop-color="#3C5132"/>
<stop offset="1" stop-color="#253D1B"/>
</linearGradient>
<linearGradient id="paint3_linear_1_2" x1="639.448" y1="341.821" x2="614.508" y2="341.76" gradientUnits="userSpaceOnUse">
<stop stop-color="#3C5132"/>
<stop offset="1" stop-color="#253D1B"/>
</linearGradient>
<linearGradient id="paint4_linear_1_2" x1="639.448" y1="341.821" x2="614.508" y2="341.76" gradientUnits="userSpaceOnUse">
<stop stop-color="#3C5132"/>
<stop offset="1" stop-color="#253D1B"/>
</linearGradient>
<linearGradient id="paint5_linear_1_2" x1="639.448" y1="341.821" x2="614.508" y2="341.76" gradientUnits="userSpaceOnUse">
<stop stop-color="#3C5132"/>
<stop offset="1" stop-color="#253D1B"/>
</linearGradient>
<linearGradient id="paint6_linear_1_2" x1="639.448" y1="341.821" x2="614.508" y2="341.76" gradientUnits="userSpaceOnUse">
<stop stop-color="#3C5132"/>
<stop offset="1" stop-color="#253D1B"/>
</linearGradient>
<linearGradient id="paint7_linear_1_2" x1="639.448" y1="341.821" x2="614.508" y2="341.76" gradientUnits="userSpaceOnUse">
<stop stop-color="#3C5132"/>
<stop offset="1" stop-color="#253D1B"/>
</linearGradient>
<linearGradient id="paint8_linear_1_2" x1="639.448" y1="341.821" x2="614.508" y2="341.76" gradientUnits="userSpaceOnUse">
<stop stop-color="#3C5132"/>
<stop offset="1" stop-color="#253D1B"/>
</linearGradient>
<clipPath id="clip0_1_2">
<rect width="938" height="430" fill="white"/>
</clipPath>
</defs>
</svg>
